<svg width="444" height="76" viewBox="0 0 444 76" fill="none" xmlns="http://www.w3.org/2000/svg">
<rect x="0.25" y="0.25" width="443.5" height="75.5" rx="9.75" fill="white"/>
<rect x="0.25" y="0.25" width="443.5" height="75.5" rx="9.75" stroke="black" stroke-width="0.5"/>
<g clip-path="url(#clip0_67_34)">
<path fill-rule="evenodd" clip-rule="evenodd" d="M113.2 38.4546C113.2 37.0364 113.073 35.6728 112.836 34.3637H94V42.1H104.764C104.3 44.6 102.891 46.7182 100.773 48.1364V53.1546H107.236C111.018 49.6728 113.2 44.5455 113.2 38.4546Z" fill="#4285F4"/>
<path fill-rule="evenodd" clip-rule="evenodd" d="M94 58C99.4 58 103.927 56.2091 107.236 53.1545L100.773 48.1363C98.9818 49.3363 96.6909 50.0454 94 50.0454C88.7909 50.0454 84.3818 46.5273 82.8091 41.8H76.1273V46.9818C79.4182 53.5182 86.1818 58 94 58Z" fill="#34A853"/>
<path fill-rule="evenodd" clip-rule="evenodd" d="M82.8091 41.8C82.4091 40.6 82.1818 39.3182 82.1818 38C82.1818 36.6818 82.4091 35.4 82.8091 34.2V29.0182H76.1273C74.7727 31.7182 74 34.7727 74 38C74 41.2273 74.7727 44.2818 76.1273 46.9818L82.8091 41.8Z" fill="#FBBC05"/>
<path fill-rule="evenodd" clip-rule="evenodd" d="M94 25.9545C96.9363 25.9545 99.5727 26.9636 101.645 28.9455L107.382 23.2091C103.918 19.9818 99.3909 18 94 18C86.1818 18 79.4182 22.4818 76.1273 29.0182L82.8091 34.2C84.3818 29.4727 88.7909 25.9545 94 25.9545Z" fill="#EA4335"/>
</g>
<path d="M133.256 27.496H149.104V29.372H133.256V27.496ZM130.4 38.36H153.276V40.292H130.4V38.36ZM140.62 39.648H142.944V51.212H140.62V39.648ZM147.984 27.496H150.28V29.708C150.28 30.5853 150.261 31.5093 150.224 32.48C150.205 33.4507 150.131 34.524 150 35.7C149.869 36.8573 149.645 38.1453 149.328 39.564L147.004 39.256C147.508 37.2213 147.797 35.4387 147.872 33.908C147.947 32.3773 147.984 30.9773 147.984 29.708V27.496ZM159.07 26.936H175.366V28.812H159.07V26.936ZM156.158 35.28H179.118V37.156H156.158V35.28ZM173.854 26.936H176.15V28.56C176.15 29.456 176.122 30.5107 176.066 31.724C176.01 32.9187 175.814 34.2907 175.478 35.84L173.182 35.588C173.518 34.0573 173.714 32.7227 173.77 31.584C173.826 30.4453 173.854 29.4373 173.854 28.56V26.936ZM158.874 39.676H176.206V46.088H161.226V49.616H158.93V44.296H173.91V41.524H158.874V39.676ZM158.93 49.028H176.85V50.876H158.93V49.028ZM198.005 32.872H203.605V34.776H198.005V32.872ZM197.809 39.228H203.549V41.132H197.809V39.228ZM207.469 25.844H209.709V51.184H207.469V25.844ZM202.373 26.516H204.585V49.896H202.373V26.516ZM196.745 29.064H198.985C198.985 31.2667 198.668 33.3853 198.033 35.42C197.399 37.436 196.381 39.3213 194.981 41.076C193.6 42.812 191.78 44.3613 189.521 45.724L188.149 44.044C190.128 42.8493 191.752 41.5053 193.021 40.012C194.291 38.5 195.224 36.8667 195.821 35.112C196.437 33.3387 196.745 31.4627 196.745 29.484V29.064ZM189.269 29.064H197.641V30.968H189.269V29.064ZM227.459 32.424H233.143V34.356H227.459V32.424ZM232.443 25.844H234.767V40.936H232.443V25.844ZM226.423 41.72C228.178 41.72 229.68 41.9067 230.931 42.28C232.2 42.6533 233.171 43.1947 233.843 43.904C234.515 44.5947 234.851 45.444 234.851 46.452C234.851 47.9453 234.095 49.1027 232.583 49.924C231.09 50.7453 229.036 51.156 226.423 51.156C223.81 51.156 221.747 50.7453 220.235 49.924C218.742 49.1027 217.995 47.9453 217.995 46.452C217.995 45.444 218.331 44.5947 219.003 43.904C219.694 43.1947 220.664 42.6533 221.915 42.28C223.184 41.9067 224.687 41.72 226.423 41.72ZM226.423 43.54C225.154 43.54 224.062 43.652 223.147 43.876C222.232 44.1 221.523 44.4267 221.019 44.856C220.534 45.2853 220.291 45.8173 220.291 46.452C220.291 47.0493 220.534 47.5627 221.019 47.992C221.523 48.4213 222.232 48.7573 223.147 49C224.062 49.224 225.154 49.336 226.423 49.336C227.711 49.336 228.803 49.224 229.699 49C230.614 48.7573 231.314 48.4213 231.799 47.992C232.303 47.5627 232.555 47.0493 232.555 46.452C232.555 45.8173 232.303 45.2853 231.799 44.856C231.314 44.4267 230.614 44.1 229.699 43.876C228.803 43.652 227.711 43.54 226.423 43.54ZM220.375 28.42H222.279V30.464C222.279 32.0133 221.98 33.4693 221.383 34.832C220.804 36.176 219.983 37.3613 218.919 38.388C217.855 39.396 216.623 40.1707 215.223 40.712L214.019 38.864C214.971 38.528 215.83 38.0707 216.595 37.492C217.379 36.9133 218.051 36.2507 218.611 35.504C219.19 34.7573 219.628 33.9547 219.927 33.096C220.226 32.2373 220.375 31.36 220.375 30.464V28.42ZM220.823 28.42H222.727V30.436C222.727 31.5187 222.979 32.5733 223.483 33.6C223.987 34.6267 224.706 35.532 225.639 36.316C226.572 37.1 227.646 37.716 228.859 38.164L227.683 40.012C226.302 39.508 225.098 38.78 224.071 37.828C223.044 36.8573 222.242 35.7373 221.663 34.468C221.103 33.1987 220.823 31.8547 220.823 30.436V28.42ZM214.747 27.692H228.271V29.596H214.747V27.692ZM251.117 27.468C252.89 27.468 254.468 27.7573 255.849 28.336C257.23 28.9147 258.322 29.7267 259.125 30.772C259.928 31.8173 260.329 33.04 260.329 34.44C260.329 35.8587 259.928 37.0907 259.125 38.136C258.322 39.1813 257.23 39.9933 255.849 40.572C254.468 41.1507 252.89 41.44 251.117 41.44C249.381 41.44 247.813 41.1507 246.413 40.572C245.032 39.9933 243.94 39.1813 243.137 38.136C242.334 37.0907 241.933 35.8587 241.933 34.44C241.933 33.04 242.334 31.8173 243.137 30.772C243.94 29.7267 245.032 28.9147 246.413 28.336C247.813 27.7573 249.381 27.468 251.117 27.468ZM251.117 29.344C249.792 29.344 248.606 29.5587 247.561 29.988C246.516 30.4173 245.685 31.0147 245.069 31.78C244.453 32.5267 244.145 33.4133 244.145 34.44C244.145 35.448 244.453 36.3347 245.069 37.1C245.685 37.8653 246.516 38.4627 247.561 38.892C248.606 39.3213 249.792 39.536 251.117 39.536C252.461 39.536 253.656 39.3213 254.701 38.892C255.746 38.4627 256.568 37.8653 257.165 37.1C257.781 36.3347 258.089 35.448 258.089 34.44C258.089 33.4133 257.781 32.5267 257.165 31.78C256.568 31.0147 255.746 30.4173 254.701 29.988C253.656 29.5587 252.461 29.344 251.117 29.344ZM239.693 45.892H262.653V47.824H239.693V45.892ZM265.451 46.116H288.411V48.048H265.451V46.116ZM275.727 40.712H278.023V46.928H275.727V40.712ZM268.251 27.72H285.555V35.392H270.603V40.46H268.307V33.544H283.259V29.624H268.251V27.72ZM268.307 39.48H286.143V41.384H268.307V39.48ZM297.47 46.116H320.43V48.048H297.47V46.116ZM307.746 40.712H310.042V46.928H307.746V40.712ZM300.27 27.72H317.574V35.392H302.622V40.46H300.326V33.544H315.278V29.624H300.27V27.72ZM300.326 39.48H318.162V41.384H300.326V39.48ZM325.72 28.532H342.016V30.436H325.72V28.532ZM323.228 45.556H346.104V47.488H323.228V45.556ZM340.756 28.532H343.052V31.08C343.052 32.144 343.033 33.2827 342.996 34.496C342.977 35.6907 342.903 37.016 342.772 38.472C342.641 39.928 342.417 41.5707 342.1 43.4L339.748 43.148C340.084 41.4307 340.317 39.8533 340.448 38.416C340.597 36.9787 340.681 35.6533 340.7 34.44C340.737 33.2267 340.756 32.1067 340.756 31.08V28.532ZM367.41 25.872H369.734V44.352H367.41V25.872ZM353.466 48.72H370.518V50.624H353.466V48.72ZM353.466 42.476H355.79V49.364H353.466V42.476ZM356.154 27.636C357.423 27.636 358.553 27.8973 359.542 28.42C360.531 28.9427 361.315 29.68 361.894 30.632C362.473 31.5653 362.762 32.6387 362.762 33.852C362.762 35.0653 362.473 36.148 361.894 37.1C361.315 38.0333 360.531 38.7707 359.542 39.312C358.553 39.8347 357.423 40.096 356.154 40.096C354.903 40.096 353.774 39.8347 352.766 39.312C351.777 38.7707 350.993 38.0333 350.414 37.1C349.835 36.148 349.546 35.0653 349.546 33.852C349.546 32.6387 349.835 31.5653 350.414 30.632C350.993 29.68 351.777 28.9427 352.766 28.42C353.774 27.8973 354.903 27.636 356.154 27.636ZM356.154 29.652C355.333 29.652 354.595 29.8293 353.942 30.184C353.289 30.5387 352.766 31.0333 352.374 31.668C352.001 32.3027 351.814 33.0307 351.814 33.852C351.814 34.692 352.001 35.4293 352.374 36.064C352.766 36.68 353.289 37.1653 353.942 37.52C354.595 37.8747 355.333 38.052 356.154 38.052C356.975 38.052 357.713 37.8747 358.366 37.52C359.038 37.1653 359.561 36.68 359.934 36.064C360.307 35.4293 360.494 34.692 360.494 33.852C360.494 33.0307 360.307 32.3027 359.934 31.668C359.561 31.0333 359.038 30.5387 358.366 30.184C357.713 29.8293 356.975 29.652 356.154 29.652Z" fill="black"/>
<defs>
<clipPath id="clip0_67_34">
<rect width="40" height="40" fill="white" transform="translate(74 18)"/>
</clipPath>
</defs>
</svg>
